<?xml version="1.0" encoding="utf-8"?>
<!-- Generator: Adobe Illustrator 22.1.0, SVG Export Plug-In . SVG Version: 6.00 Build 0)  -->
<svg version="1.1" id="Capa_1" xmlns="http://www.w3.org/2000/svg" xmlns:xlink="http://www.w3.org/1999/xlink" x="0px" y="0px"
	 viewBox="0 0 782 128" style="enable-background:new 0 0 782 128;" xml:space="preserve">
<style type="text/css">
	.st0{fill:#FFFFFF;}
	.st1{fill:none;}
	.st2{fill:#5DA4E4;}
</style>
<g>
	<g>
		<path class="st0" d="M74.6,112.1c0-1.6,0.3-3.1,0.9-4.5c0.6-1.4,1.4-2.6,2.5-3.7c1.1-1,2.3-1.9,3.8-2.4c1.5-0.6,3.1-0.9,4.9-0.9
			c1.8,0,3.4,0.3,4.9,0.9c1.5,0.6,2.8,1.4,3.8,2.4s1.9,2.3,2.5,3.7c0.6,1.4,0.9,2.9,0.9,4.5c0,1.6-0.3,3.1-0.9,4.5
			c-0.6,1.4-1.4,2.6-2.5,3.7s-2.4,1.9-3.8,2.4s-3.1,0.9-4.9,0.9c-1.8,0-3.4-0.3-4.9-0.9c-1.5-0.6-2.7-1.4-3.8-2.4
			c-1.1-1-1.9-2.3-2.5-3.7C74.9,115.2,74.6,113.7,74.6,112.1z M80.5,112.1c0,0.9,0.2,1.7,0.5,2.4c0.3,0.7,0.8,1.4,1.3,1.9
			s1.2,1,2,1.3c0.7,0.3,1.5,0.4,2.4,0.4c0.8,0,1.6-0.1,2.4-0.4c0.7-0.3,1.4-0.7,2-1.3c0.6-0.5,1-1.2,1.3-1.9
			c0.3-0.7,0.5-1.5,0.5-2.4c0-0.9-0.2-1.7-0.5-2.4s-0.8-1.4-1.3-1.9c-0.6-0.5-1.2-1-2-1.3c-0.7-0.3-1.5-0.4-2.4-0.4
			c-0.8,0-1.6,0.1-2.4,0.4c-0.7,0.3-1.4,0.7-2,1.3c-0.6,0.5-1,1.2-1.3,1.9S80.5,111.2,80.5,112.1z"/>
		<path class="st0" d="M114.9,106h-6.8v3.7h6.2v4.8h-6.2v8.6h-5.7v-21.8h12.5V106z"/>
		<path class="st0" d="M124,101.2V123h-5.7v-21.8H124z"/>
		<path class="st0" d="M144.3,108.5c-1.3-1.6-2.9-2.4-4.9-2.4c-0.9,0-1.6,0.2-2.4,0.5c-0.7,0.3-1.3,0.7-1.9,1.3s-0.9,1.2-1.2,1.9
			c-0.3,0.7-0.4,1.5-0.4,2.4c0,0.9,0.1,1.7,0.4,2.4c0.3,0.7,0.7,1.4,1.2,1.9c0.5,0.5,1.2,1,1.9,1.3c0.7,0.3,1.5,0.5,2.3,0.5
			c1.8,0,3.4-0.8,4.9-2.3v6.7l-0.6,0.2c-0.9,0.3-1.7,0.5-2.4,0.7c-0.8,0.1-1.5,0.2-2.2,0.2c-1.5,0-3-0.3-4.3-0.9s-2.6-1.4-3.7-2.4
			c-1.1-1-1.9-2.3-2.5-3.7s-1-3-1-4.7s0.3-3.2,0.9-4.6c0.6-1.4,1.5-2.6,2.5-3.6c1.1-1,2.3-1.8,3.7-2.4c1.4-0.6,2.8-0.9,4.4-0.9
			c0.9,0,1.7,0.1,2.6,0.3c0.8,0.2,1.7,0.5,2.7,0.9V108.5z"/>
		<path class="st0" d="M153.6,101.2V123h-5.7v-21.8H153.6z"/>
		<path class="st0" d="M158.1,123v-21.8h5.7l10.5,13.4v-13.4h5.7V123h-5.7l-10.5-13.4V123H158.1z"/>
		<path class="st0" d="M198,119.2h-8.1l-1.3,3.8h-6.1l8.3-21.8h6.2l8.3,21.8h-6.1L198,119.2z M196.5,114.9l-2.5-7.3l-2.5,7.3H196.5z
			"/>
		<path class="st0" d="M219.8,106.8c-0.6-0.5-1.2-0.9-1.9-1.1c-0.6-0.2-1.2-0.4-1.8-0.4c-0.7,0-1.3,0.2-1.8,0.5
			c-0.5,0.3-0.7,0.8-0.7,1.4c0,0.4,0.1,0.7,0.3,1c0.2,0.3,0.5,0.5,0.9,0.7s0.8,0.3,1.3,0.5c0.5,0.1,0.9,0.3,1.4,0.4
			c1.9,0.6,3.2,1.4,4.1,2.5c0.9,1,1.3,2.4,1.3,4c0,1.1-0.2,2.1-0.6,3c-0.4,0.9-0.9,1.7-1.7,2.3c-0.7,0.6-1.6,1.1-2.7,1.5
			s-2.2,0.5-3.6,0.5c-2.8,0-5.3-0.8-7.7-2.5l2.4-4.6c0.8,0.8,1.7,1.3,2.5,1.7c0.8,0.4,1.7,0.6,2.5,0.6c0.9,0,1.6-0.2,2.1-0.6
			s0.7-0.9,0.7-1.4c0-0.3-0.1-0.6-0.2-0.9c-0.1-0.2-0.3-0.5-0.6-0.7c-0.3-0.2-0.6-0.4-1.1-0.6s-1-0.4-1.6-0.6
			c-0.7-0.2-1.5-0.5-2.2-0.8s-1.3-0.7-1.9-1.1c-0.6-0.5-1-1-1.3-1.8c-0.3-0.7-0.5-1.6-0.5-2.7s0.2-2.1,0.5-2.9s0.9-1.6,1.5-2.3
			c0.6-0.6,1.4-1.1,2.4-1.5c0.9-0.3,2-0.5,3.1-0.5c1.1,0,2.2,0.1,3.4,0.4c1.2,0.3,2.3,0.7,3.4,1.3L219.8,106.8z"/>
		<path class="st0" d="M248.8,106h-6.8v3.7h6.4v4.8h-6.4v3.8h6.8v4.8h-12.4v-21.8h12.4V106z"/>
		<path class="st0" d="M251.9,123l3.7-21.8h5.6l4.4,11.6l4.3-11.6h5.6l3.7,21.8h-5.7l-1.9-12.6l-5.2,12.6h-2.3l-4.9-12.6l-1.9,12.6
			H251.9z"/>
		<path class="st0" d="M288.6,123h-5.7v-21.8h9c2.5,0,4.3,0.6,5.6,1.9c1.3,1.3,2,3.1,2,5.4c0,2.3-0.7,4.1-2,5.4
			c-1.3,1.3-3.2,1.9-5.6,1.9h-3.4V123z M288.6,111.2h1.9c2.1,0,3.1-0.9,3.1-2.7c0-1.8-1-2.7-3.1-2.7h-1.9V111.2z"/>
		<path class="st0" d="M320.7,123h-7.1l-5.4-8.4v8.4h-5.7v-21.8h8.8c1.2,0,2.3,0.2,3.2,0.5s1.7,0.8,2.2,1.5c0.6,0.6,1,1.3,1.3,2.1
			c0.3,0.8,0.4,1.7,0.4,2.6c0,1.7-0.4,3-1.2,4s-2,1.7-3.5,2.1L320.7,123z M308.2,110.9h1.1c1.1,0,2-0.2,2.6-0.7
			c0.6-0.5,0.9-1.1,0.9-2s-0.3-1.5-0.9-2c-0.6-0.5-1.5-0.7-2.6-0.7h-1.1V110.9z"/>
		<path class="st0" d="M335.5,106h-6.8v3.7h6.4v4.8h-6.4v3.8h6.8v4.8h-12.4v-21.8h12.4V106z"/>
		<path class="st0" d="M351.6,106.8c-0.6-0.5-1.2-0.9-1.9-1.1c-0.6-0.2-1.2-0.4-1.8-0.4c-0.7,0-1.3,0.2-1.8,0.5s-0.7,0.8-0.7,1.4
			c0,0.4,0.1,0.7,0.3,1c0.2,0.3,0.5,0.5,0.9,0.7c0.4,0.2,0.8,0.3,1.3,0.5c0.5,0.1,0.9,0.3,1.4,0.4c1.9,0.6,3.2,1.4,4.1,2.5
			s1.3,2.4,1.3,4c0,1.1-0.2,2.1-0.6,3s-0.9,1.7-1.7,2.3c-0.7,0.6-1.6,1.1-2.7,1.5c-1.1,0.4-2.2,0.5-3.6,0.5c-2.8,0-5.3-0.8-7.7-2.5
			l2.4-4.6c0.9,0.8,1.7,1.3,2.5,1.7c0.8,0.4,1.7,0.6,2.5,0.6c0.9,0,1.6-0.2,2.1-0.6c0.5-0.4,0.7-0.9,0.7-1.4c0-0.3-0.1-0.6-0.2-0.9
			s-0.3-0.5-0.6-0.7c-0.3-0.2-0.6-0.4-1.1-0.6c-0.4-0.2-1-0.4-1.6-0.6c-0.7-0.2-1.5-0.5-2.2-0.8c-0.7-0.3-1.3-0.7-1.9-1.1
			c-0.6-0.5-1-1-1.3-1.8c-0.3-0.7-0.5-1.6-0.5-2.7s0.2-2.1,0.5-2.9s0.9-1.6,1.5-2.3c0.6-0.6,1.4-1.1,2.4-1.5c0.9-0.3,2-0.5,3.1-0.5
			c1.1,0,2.2,0.1,3.4,0.4c1.2,0.3,2.3,0.7,3.4,1.3L351.6,106.8z"/>
		<path class="st0" d="M371.3,119.2h-8.1l-1.3,3.8h-6.1l8.3-21.8h6.2l8.3,21.8h-6.1L371.3,119.2z M369.8,114.9l-2.6-7.3l-2.5,7.3
			H369.8z"/>
		<path class="st0" d="M399.3,123h-7.1l-5.4-8.4v8.4h-5.7v-21.8h8.8c1.2,0,2.3,0.2,3.2,0.5c0.9,0.4,1.7,0.8,2.2,1.5
			c0.6,0.6,1,1.3,1.3,2.1s0.4,1.7,0.4,2.6c0,1.7-0.4,3-1.2,4s-2,1.7-3.5,2.1L399.3,123z M386.9,110.9h1.1c1.1,0,2-0.2,2.6-0.7
			c0.6-0.5,0.9-1.1,0.9-2s-0.3-1.5-0.9-2c-0.6-0.5-1.5-0.7-2.6-0.7h-1.1V110.9z"/>
		<path class="st0" d="M407.4,101.2V123h-5.7v-21.8H407.4z"/>
		<path class="st0" d="M425.4,119.2h-8.1l-1.3,3.8h-6.1l8.3-21.8h6.2l8.3,21.8h-6.1L425.4,119.2z M423.9,114.9l-2.6-7.3l-2.5,7.3
			H423.9z"/>
		<path class="st0" d="M440.9,101.2v17h6.8v4.8h-12.5v-21.8H440.9z"/>
		<path class="st0" d="M463.1,106h-6.8v3.7h6.4v4.8h-6.4v3.8h6.8v4.8h-12.4v-21.8h12.4V106z"/>
		<path class="st0" d="M479.1,106.8c-0.6-0.5-1.2-0.9-1.9-1.1c-0.6-0.2-1.2-0.4-1.8-0.4c-0.7,0-1.3,0.2-1.8,0.5
			c-0.5,0.3-0.7,0.8-0.7,1.4c0,0.4,0.1,0.7,0.3,1c0.2,0.3,0.5,0.5,0.9,0.7s0.8,0.3,1.3,0.5c0.5,0.1,0.9,0.3,1.4,0.4
			c1.9,0.6,3.2,1.4,4.1,2.5c0.9,1,1.3,2.4,1.3,4c0,1.1-0.2,2.1-0.6,3c-0.4,0.9-0.9,1.7-1.7,2.3c-0.7,0.6-1.6,1.1-2.7,1.5
			s-2.2,0.5-3.6,0.5c-2.8,0-5.3-0.8-7.7-2.5l2.4-4.6c0.8,0.8,1.7,1.3,2.5,1.7c0.8,0.4,1.7,0.6,2.5,0.6c0.9,0,1.6-0.2,2.1-0.6
			s0.7-0.9,0.7-1.4c0-0.3-0.1-0.6-0.2-0.9c-0.1-0.2-0.3-0.5-0.6-0.7c-0.3-0.2-0.6-0.4-1.1-0.6s-1-0.4-1.6-0.6
			c-0.7-0.2-1.5-0.5-2.2-0.8s-1.3-0.7-1.9-1.1c-0.6-0.5-1-1-1.3-1.8c-0.3-0.7-0.5-1.6-0.5-2.7s0.2-2.1,0.5-2.9s0.9-1.6,1.5-2.3
			c0.6-0.6,1.4-1.1,2.4-1.5c0.9-0.3,2-0.5,3.1-0.5c1.1,0,2.2,0.1,3.4,0.4c1.2,0.3,2.3,0.7,3.4,1.3L479.1,106.8z"/>
		<path class="st0" d="M493.4,113.1h8.3v4.4h-8.3V113.1z"/>
		<path class="st0" d="M525.9,106.8c-0.6-0.5-1.2-0.9-1.9-1.1c-0.6-0.2-1.2-0.4-1.8-0.4c-0.7,0-1.3,0.2-1.8,0.5s-0.7,0.8-0.7,1.4
			c0,0.4,0.1,0.7,0.3,1c0.2,0.3,0.5,0.5,0.9,0.7c0.4,0.2,0.8,0.3,1.3,0.5c0.5,0.1,0.9,0.3,1.4,0.4c1.9,0.6,3.2,1.4,4.1,2.5
			s1.3,2.4,1.3,4c0,1.1-0.2,2.1-0.6,3s-0.9,1.7-1.7,2.3c-0.7,0.6-1.6,1.1-2.7,1.5c-1.1,0.4-2.2,0.5-3.6,0.5c-2.8,0-5.3-0.8-7.7-2.5
			l2.4-4.6c0.9,0.8,1.7,1.3,2.5,1.7c0.8,0.4,1.7,0.6,2.5,0.6c0.9,0,1.6-0.2,2.1-0.6c0.5-0.4,0.7-0.9,0.7-1.4c0-0.3-0.1-0.6-0.2-0.9
			s-0.3-0.5-0.6-0.7c-0.3-0.2-0.6-0.4-1.1-0.6c-0.4-0.2-1-0.4-1.6-0.6c-0.7-0.2-1.5-0.5-2.2-0.8c-0.7-0.3-1.3-0.7-1.9-1.1
			c-0.6-0.5-1-1-1.3-1.8c-0.3-0.7-0.5-1.6-0.5-2.7s0.2-2.1,0.5-2.9s0.9-1.6,1.5-2.3c0.6-0.6,1.4-1.1,2.4-1.5c0.9-0.3,2-0.5,3.1-0.5
			c1.1,0,2.2,0.1,3.4,0.4c1.2,0.3,2.3,0.7,3.4,1.3L525.9,106.8z"/>
		<path class="st0" d="M545.6,119.2h-8.1l-1.3,3.8h-6.1l8.3-21.8h6.2L553,123h-6.1L545.6,119.2z M544.1,114.9l-2.6-7.3l-2.5,7.3
			H544.1z"/>
		<path class="st0" d="M555.4,123v-21.8h5.7l10.5,13.4v-13.4h5.7V123h-5.7l-10.5-13.4V123H555.4z"/>
		<path class="st0" d="M590.7,123l3.7-21.8h5.6l4.4,11.6l4.3-11.6h5.6l3.7,21.8h-5.7l-1.9-12.6l-5.2,12.6h-2.3l-4.9-12.6l-1.9,12.6
			H590.7z"/>
		<path class="st0" d="M627.4,101.2V123h-5.7v-21.8H627.4z"/>
		<path class="st0" d="M642.6,110.8h11.3c0,1.2,0,2.2-0.1,3.2s-0.3,1.8-0.6,2.6c-0.4,1.1-1,2.1-1.7,3s-1.5,1.6-2.4,2.2
			c-0.9,0.6-2,1-3.1,1.3c-1.1,0.3-2.3,0.5-3.5,0.5c-1.7,0-3.3-0.3-4.7-0.8c-1.4-0.6-2.6-1.3-3.6-2.4c-1-1-1.8-2.2-2.3-3.7
			c-0.6-1.4-0.8-3-0.8-4.7c0-1.7,0.3-3.3,0.8-4.7c0.5-1.4,1.3-2.6,2.3-3.6c1-1,2.2-1.8,3.7-2.3c1.4-0.6,3-0.8,4.8-0.8
			c2.3,0,4.3,0.5,6,1.5c1.7,1,3.1,2.5,4.1,4.6l-5.4,2.2c-0.5-1.2-1.2-2.1-2-2.6c-0.8-0.5-1.7-0.8-2.7-0.8c-0.9,0-1.6,0.2-2.3,0.5
			c-0.7,0.3-1.3,0.8-1.8,1.4c-0.5,0.6-0.9,1.3-1.2,2.1c-0.3,0.8-0.4,1.8-0.4,2.8c0,0.9,0.1,1.8,0.4,2.6c0.2,0.8,0.6,1.5,1.1,2.1
			c0.5,0.6,1.1,1,1.8,1.3c0.7,0.3,1.5,0.5,2.5,0.5c0.6,0,1.1-0.1,1.6-0.2c0.5-0.1,1-0.3,1.4-0.6c0.4-0.3,0.8-0.6,1-1.1
			s0.5-1,0.6-1.6h-4.7V110.8z"/>
		<path class="st0" d="M663.1,101.2v11.9c0,0.6,0,1.3,0.1,2c0,0.7,0.2,1.3,0.4,1.8c0.2,0.5,0.6,1,1.1,1.3c0.5,0.3,1.3,0.5,2.2,0.5
			c0.9,0,1.7-0.2,2.2-0.5c0.5-0.3,0.9-0.8,1.1-1.3c0.3-0.5,0.4-1.1,0.4-1.8c0-0.7,0.1-1.3,0.1-2v-11.9h5.7v12.7
			c0,3.4-0.8,5.9-2.3,7.4c-1.6,1.6-3.9,2.3-7.2,2.3c-3.2,0-5.6-0.8-7.2-2.3c-1.6-1.6-2.3-4-2.3-7.4v-12.7H663.1z"/>
		<path class="st0" d="M693.5,106h-6.8v3.7h6.4v4.8h-6.4v3.8h6.8v4.8h-12.4v-21.8h12.4V106z"/>
		<path class="st0" d="M703.3,101.2v17h6.8v4.8h-12.5v-21.8H703.3z"/>
	</g>
	<g>
		<path class="st0" d="M10.2,26.8l94-1.4c0,0,6.9-0.1,7.1,4.9c0.2,4.7-6.4,5.6-6.4,5.6l-85.5,0.3c0,0-6,1.6-10.9,6.7s-4,9.2-4,9.2
			l0.4,19.9c0,0,1.6,4.9,8.1,4.9c5.5,0,7.5-4.8,7.5-4.8l0.2-16.3c0,0-0.1-4,6.9-4.1c7-0.1,79.9-0.6,79.9-0.6s17.3-3,17-20
			C124.2,14,108,11.3,108,11.3l-98,0.5c0,0-6,1.1-5.9,7.1S10.2,26.8,10.2,26.8z"/>
		<path class="st0" d="M380.5,44c0,8.8-8.9,7.8-8.9,7.8l-91.5,0.3c0,0-6.6,0.9-6.4,5.6c0.2,5,7.1,4.9,7.1,4.9l94-1.4
			c0,0,6,1.9,6.1,7.9s-5.9,7.1-5.9,7.1l-98,0.5c0,0-16.2-2.7-16.5-19.7s17-20,17-20l94-1C371.5,36,380.5,35.2,380.5,44z"/>
		<path class="st0" d="M528.9,11.8c8.8,0,7.8,8.9,7.8,8.9l0.3,31.5c0,0,0.5,7.4,8.5,8.8c5.5,1,18.1,1.4,37,1c16.5-0.4,31.6,0.4,40-2
			c7-2,8-5,8-5l-1.4-37.5c0,0,1.9-6,7.9-6.1s7.1,5.9,7.1,5.9l0.5,38c0,0,11.9,19.6-62.1,20.7c-67,1-60.6-21.2-60.6-21.2l-1-34
			C520.9,20.8,520.1,11.8,528.9,11.8z"/>
		<path class="st0" d="M776.4,45.3c-4.6-9.1-13.9-8.3-13.9-8.3l-0.8,0l-92.7-1c-1.1-0.7-2-1.8-2-3.6c-0.2-4.7,6.4-5.6,6.4-5.6
			l91.5-0.3c0,0,8.9,1,8.9-7.8c0-8.8-9-8-9-8l-94,1c0,0-17.3,3-17,20s16.5,19.7,16.5,19.7l22.5-0.1l67.7,0.8c0,0,6.6,0.9,6.4,5.6
			c-0.2,5-7.1,4.9-7.1,4.9l-94-1.4c0,0-6,1.9-6.1,7.9s5.9,7.1,5.9,7.1l98,0.5c0,0,16.2-2.7,16.5-19.7
			C780,51.9,778.5,48.1,776.4,45.3z"/>
		<path class="st0" d="M375.5,28h-107c-5,0-9-4-9-9v0c0-5,4-9,9-9h107c5,0,9,4,9,9v0C384.5,24,380.5,28,375.5,28z"/>
		<path class="st0" d="M139.5,10c6,0,8,5,8,5v40.5V61l3.8,0l96.2-1c0,0,6,1,6,7s-6,8-6,8l-100,1c0,0-6,1-11-5s-5-10-5-10V15
			C131.5,15,133.5,10,139.5,10z"/>
		<g>
			<path class="st1" d="M456,50c-21.5,0-40.3,10.9-50,27h99.9C496.2,60.9,477.5,50,456,50z"/>
			<path class="st2" d="M456,50c20.1,0,37.8,9.6,48,23.9c4,5.1,9,6.1,12,5.1s6.4-5.3,5.5-6.9C509.6,49.6,484.7,34,456,34
				c-29.4,0-54.5,15.6-66,39c-0.5,1.1,0,5,6,7c5.8,1.9,10-3,10-3s0.9-1.5,1.4-2.2C417.5,59.9,435.5,50,456,50z"/>
		</g>
		<g>
			<path class="st1" d="M455.5,34c21.5,0,40.3-10.9,50-27h-99.9C415.2,23.1,434,34,455.5,34z"/>
			<path class="st2" d="M455.5,34c-20.1,0-37.8-9.6-48-23.9c-4-5.1-9-6.1-12-5.1s-6.4,5.3-5.5,6.9C401.9,34.4,426.8,50,455.5,50
				c29.4,0,54.5-15.6,66-39c0.5-1.1,0-5-6-7c-5.8-1.9-10,3-10,3s-0.9,1.5-1.4,2.2C494,24.1,476,34,455.5,34z"/>
		</g>
	</g>
</g>
</svg>
